<svg width="98" height="89" viewBox="0 0 98 89" fill="none" xmlns="http://www.w3.org/2000/svg">
<path d="M42.1892 24.8007L4.78135 35.7698C2.14068 36.5442 0.627717 39.3126 1.40204 41.9532L13.7036 83.905C14.478 86.5456 17.2464 88.0586 19.887 87.2843L57.2949 76.3151C59.9355 75.5408 61.4485 72.7724 60.6742 70.1317L48.3726 28.18C47.5982 25.5393 44.8299 24.0263 42.1892 24.8007Z" fill="#2C2B2B"/>
<path d="M95.2587 17.2146L39.0849 0.766403C37.6394 0.34313 36.1244 1.17186 35.7011 2.61741L17.897 63.4219C17.4737 64.8675 18.3024 66.3825 19.748 66.8057L75.9217 83.2539C77.3673 83.6772 78.8823 82.8485 79.3055 81.4029L97.1097 20.5984C97.5329 19.1529 96.7042 17.6379 95.2587 17.2146Z" fill="#515151"/>
<path d="M89.784 22.1393L41.4973 8.00049L28.542 52.2454L76.8287 66.3842L89.784 22.1393Z" fill="#2A2929" stroke="#6B6B6B" stroke-linecap="round" stroke-linejoin="round"/>
<path d="M89.784 22.1393L41.4973 8.00049L35.4515 28.6482L54.7567 37.6823L81.8407 49.4579L89.784 22.1393Z" fill="#2A2929" stroke="#6B6B6B" stroke-linecap="round" stroke-linejoin="round"/>
<path fill-rule="evenodd" clip-rule="evenodd" d="M38.2708 29.4389L43.4966 25.1961L50.4383 22.5666L51.4213 24.7924L53.7686 21.4671L54.6227 21.4114L56.6529 19.0814L64.1772 41.2146" fill="#363636"/>
<path d="M38.2708 29.4389L43.4966 25.1961L50.4383 22.5666L51.4213 24.7924L53.7686 21.4671L54.6227 21.4114L56.6529 19.0814L64.1772 41.2146" stroke="#6B6B6B" stroke-linecap="round" stroke-linejoin="round"/>
<path fill-rule="evenodd" clip-rule="evenodd" d="M57.4681 19.0818C57.3962 20.8195 57.2744 22.5551 57.1028 24.2857C56.9725 25.5992 56.8136 26.9098 56.6261 28.2163L54.6628 26.8771L50.9759 22.6573L50.1629 27.3753L49.2904 29.7659L49.4043 33.042L56.9385 33.9932L65.812 34.3352L63.3414 25.3456L61.9578 26.5347L59.9278 23.5784L57.4681 19.0818Z" fill="#363636" stroke="#6B6B6B" stroke-linecap="round" stroke-linejoin="round"/>
<path fill-rule="evenodd" clip-rule="evenodd" d="M50.0466 34.7379L59.5316 30.9557L61.6298 30.5367L65.2274 26.8728L68.4031 25.486L81.8408 49.4575" fill="#363636"/>
<path d="M50.0466 34.7379L59.5316 30.9557L61.6298 30.5367L65.2274 26.8728L68.4031 25.486L81.8408 49.4575" stroke="#6B6B6B" stroke-linecap="round" stroke-linejoin="round"/>
<path fill-rule="evenodd" clip-rule="evenodd" d="M68.4031 25.4863L69.6072 34.4765L68.7403 37.4371L67.8735 40.3976L69.5212 42.9582C70.3484 42.5118 71.2517 42.2068 72.1801 42.0602C73.8394 41.7983 75.5308 42.0422 77.2102 42.0789C77.892 42.0938 78.5902 42.0715 79.2277 41.8292C79.39 41.7675 79.5471 41.6919 79.6967 41.6035L76.747 40.7398L73.9303 35.5862L72.4031 29.9167L71.1405 30.4906L68.4031 25.4863Z" fill="#323232" stroke="#5E5E5E" stroke-linecap="round" stroke-linejoin="round"/>
<path fill-rule="evenodd" clip-rule="evenodd" d="M43.2905 56.5637C43.5259 55.6078 42.9305 54.5786 45.8572 54.0414C49.4483 53.3823 59.2687 54.1373 62.5442 52.5241C64.9676 51.3306 56.7053 46.7931 58.8353 45.1319C59.8011 44.3786 65.2149 44.8681 67.7837 44.5202C70.2188 44.1905 69.8426 43.0091 71.7345 42.4772C73.5619 41.9633 79.0241 42.5007 79.6967 41.6033C78.3699 42.3381 72.3414 41.6277 69.984 41.9619C67.4961 42.3147 67.2994 43.3034 64.275 43.4377C61.0168 43.5824 54.9186 42.8922 53.298 43.4812C49.9035 44.7151 56.6792 49.0189 53.1636 49.847C48.4029 50.9684 37.2336 49.8044 32.3555 50.1593C28.9846 50.4046 29.0514 51.0865 28.5421 52.2453" fill="#363636"/>
<path d="M43.2905 56.5637C43.5259 55.6078 42.9305 54.5786 45.8572 54.0414C49.4483 53.3823 59.2687 54.1373 62.5442 52.5241C64.9676 51.3306 56.7053 46.7931 58.8353 45.1319C59.8011 44.3786 65.2149 44.8681 67.7837 44.5202C70.2188 44.1905 69.8426 43.0091 71.7345 42.4772C73.5619 41.9633 79.0241 42.5007 79.6967 41.6033C78.3699 42.3381 72.3414 41.6277 69.984 41.9619C67.4961 42.3147 67.2994 43.3034 64.275 43.4377C61.0168 43.5824 54.9186 42.8922 53.298 43.4812C49.9035 44.7151 56.6792 49.0189 53.1636 49.847C48.4029 50.9684 37.2336 49.8044 32.3555 50.1593C28.9846 50.4046 29.0514 51.0865 28.5421 52.2453" stroke="#6B6B6B" stroke-linecap="round" stroke-linejoin="round"/>
</svg>
