<svg width="14" height="14" viewBox="0 0 14 14" fill="none" xmlns="http://www.w3.org/2000/svg">
<path d="M11.6663 5.83332C11.6663 8.74591 8.43526 11.7792 7.35026 12.7161C7.24918 12.7921 7.12614 12.8332 6.99967 12.8332C6.87321 12.8332 6.75017 12.7921 6.64909 12.7161C5.56409 11.7792 2.33301 8.74591 2.33301 5.83332C2.33301 4.59565 2.82467 3.40866 3.69984 2.53349C4.57501 1.65832 5.762 1.16666 6.99967 1.16666C8.23735 1.16666 9.42434 1.65832 10.2995 2.53349C11.1747 3.40866 11.6663 4.59565 11.6663 5.83332Z" stroke="white" stroke-opacity="0.8" stroke-linecap="round" stroke-linejoin="round"/>
<path d="M7 7.58334C7.9665 7.58334 8.75 6.79984 8.75 5.83334C8.75 4.86685 7.9665 4.08334 7 4.08334C6.0335 4.08334 5.25 4.86685 5.25 5.83334C5.25 6.79984 6.0335 7.58334 7 7.58334Z" stroke="white" stroke-opacity="0.8" stroke-linecap="round" stroke-linejoin="round"/>
</svg>
