<svg width="24" height="24" viewBox="0 0 24 24" fill="none" xmlns="http://www.w3.org/2000/svg">
<path d="M1 6.59994C1 4.90288 1 4.05436 1.55707 3.52715C2.11415 2.99994 3.01074 2.99994 4.80394 2.99994C6.59713 2.99994 7.49373 2.99994 8.0508 3.52715C8.60787 4.05436 8.60787 4.90288 8.60787 6.59994V8.39993C8.60787 10.097 8.60787 10.9455 8.0508 11.4727C7.49373 11.9999 6.59713 11.9999 4.80394 11.9999C3.01074 11.9999 2.11415 11.9999 1.55707 11.4727C1 10.9455 1 10.097 1 8.39993V6.59994Z" fill="url(#paint0_linear_10426_8631)" fill-opacity="0.4"/>
<path d="M1 18.2999C1 17.4612 1 17.0419 1.14478 16.7111C1.33782 16.27 1.70808 15.9196 2.17412 15.7369C2.52364 15.5999 2.96675 15.5999 3.85295 15.5999H5.75492C6.64113 15.5999 7.08423 15.5999 7.43376 15.7369C7.89979 15.9196 8.27006 16.27 8.46309 16.7111C8.60787 17.0419 8.60787 17.4612 8.60787 18.2999C8.60787 19.1386 8.60787 19.558 8.46309 19.8887C8.27006 20.3298 7.89979 20.6802 7.43376 20.8629C7.08423 20.9999 6.64113 20.9999 5.75492 20.9999H3.85295C2.96675 20.9999 2.52364 20.9999 2.17412 20.8629C1.70808 20.6802 1.33782 20.3298 1.14478 19.8887C1 19.558 1 19.1386 1 18.2999Z" fill="url(#paint1_linear_10426_8631)" fill-opacity="0.4"/>
<path d="M12.4121 15.6C12.4121 13.9029 12.4121 13.0544 12.9692 12.5272C13.5263 12 14.4229 12 16.216 12C18.0092 12 18.9058 12 19.4629 12.5272C20.02 13.0544 20.02 13.9029 20.02 15.6V17.3999C20.02 19.097 20.02 19.9455 19.4629 20.4727C18.9058 20.9999 18.0092 20.9999 16.216 20.9999C14.4229 20.9999 13.5263 20.9999 12.9692 20.4727C12.4121 19.9455 12.4121 19.097 12.4121 17.3999V15.6Z" fill="url(#paint2_linear_10426_8631)" fill-opacity="0.4"/>
<path d="M12.4121 5.69993C12.4121 4.86124 12.4121 4.44189 12.5569 4.11111C12.7499 3.67006 13.1202 3.31964 13.5862 3.13696C13.9358 2.99994 14.3789 2.99994 15.2651 2.99994H17.167C18.0532 2.99994 18.4963 2.99994 18.8459 3.13696C19.3119 3.31964 19.6822 3.67006 19.8752 4.11111C20.02 4.44189 20.02 4.86124 20.02 5.69993C20.02 6.53863 20.02 6.95797 19.8752 7.28876C19.6822 7.72981 19.3119 8.08022 18.8459 8.26291C18.4963 8.39993 18.0532 8.39993 17.167 8.39993H15.2651C14.3789 8.39993 13.9358 8.39993 13.5862 8.26291C13.1202 8.08022 12.7499 7.72981 12.5569 7.28876C12.4121 6.95797 12.4121 6.53863 12.4121 5.69993Z" fill="url(#paint3_linear_10426_8631)" fill-opacity="0.4"/>
<path d="M3.98047 6.59993C3.98047 4.90288 3.98047 4.05435 4.53754 3.52715C5.09462 2.99994 5.99121 2.99994 7.7844 2.99994C9.5776 2.99994 10.4742 2.99994 11.0313 3.52715C11.5883 4.05435 11.5883 4.90288 11.5883 6.59993V8.39993C11.5883 10.097 11.5883 10.9455 11.0313 11.4727C10.4742 11.9999 9.5776 11.9999 7.7844 11.9999C5.99121 11.9999 5.09462 11.9999 4.53754 11.4727C3.98047 10.9455 3.98047 10.097 3.98047 8.39993V6.59993Z" fill="white"/>
<path d="M3.98047 18.2999C3.98047 17.4612 3.98047 17.0419 4.12525 16.7111C4.31829 16.27 4.68855 15.9196 5.15459 15.7369C5.50411 15.5999 5.94721 15.5999 6.83342 15.5999H8.73539C9.6216 15.5999 10.0647 15.5999 10.4142 15.7369C10.8803 15.9196 11.2505 16.27 11.4436 16.7111C11.5883 17.0419 11.5883 17.4612 11.5883 18.2999C11.5883 19.1386 11.5883 19.558 11.4436 19.8887C11.2505 20.3298 10.8803 20.6802 10.4142 20.8629C10.0647 20.9999 9.6216 20.9999 8.73539 20.9999H6.83342C5.94721 20.9999 5.50411 20.9999 5.15459 20.8629C4.68855 20.6802 4.31829 20.3298 4.12525 19.8887C3.98047 19.558 3.98047 19.1386 3.98047 18.2999Z" fill="white"/>
<path d="M15.3926 15.6C15.3926 13.9029 15.3926 13.0544 15.9497 12.5272C16.5067 12 17.4033 12 19.1965 12C20.9897 12 21.8863 12 22.4434 12.5272C23.0005 13.0544 23.0005 13.9029 23.0005 15.6V17.3999C23.0005 19.097 23.0005 19.9455 22.4434 20.4727C21.8863 20.9999 20.9897 20.9999 19.1965 20.9999C17.4033 20.9999 16.5067 20.9999 15.9497 20.4727C15.3926 19.9455 15.3926 19.097 15.3926 17.3999V15.6Z" fill="white"/>
<path d="M15.3926 5.69993C15.3926 4.86124 15.3926 4.44189 15.5374 4.11111C15.7304 3.67006 16.1007 3.31965 16.5667 3.13696C16.9162 2.99994 17.3593 2.99994 18.2455 2.99994H20.1475C21.0337 2.99994 21.4768 2.99994 21.8263 3.13696C22.2924 3.31965 22.6626 3.67006 22.8557 4.11111C23.0005 4.44189 23.0005 4.86124 23.0005 5.69993C23.0005 6.53863 23.0005 6.95797 22.8557 7.28876C22.6626 7.72981 22.2924 8.08022 21.8263 8.26291C21.4768 8.39993 21.0337 8.39993 20.1475 8.39993H18.2455C17.3593 8.39993 16.9162 8.39993 16.5667 8.26291C16.1007 8.08022 15.7304 7.72981 15.5374 7.28876C15.3926 6.95797 15.3926 6.53863 15.3926 5.69993Z" fill="white"/>
<defs>
<linearGradient id="paint0_linear_10426_8631" x1="4.80394" y1="2.99994" x2="4.80394" y2="11.9999" gradientUnits="userSpaceOnUse">
<stop stop-color="#ADADAD"/>
<stop offset="1" stop-color="#3D3D3D"/>
</linearGradient>
<linearGradient id="paint1_linear_10426_8631" x1="4.80394" y1="15.5999" x2="4.80394" y2="20.9999" gradientUnits="userSpaceOnUse">
<stop stop-color="#ADADAD"/>
<stop offset="1" stop-color="#3D3D3D"/>
</linearGradient>
<linearGradient id="paint2_linear_10426_8631" x1="16.216" y1="12" x2="16.216" y2="20.9999" gradientUnits="userSpaceOnUse">
<stop stop-color="#ADADAD"/>
<stop offset="1" stop-color="#3D3D3D"/>
</linearGradient>
<linearGradient id="paint3_linear_10426_8631" x1="16.216" y1="2.99994" x2="16.216" y2="8.39993" gradientUnits="userSpaceOnUse">
<stop stop-color="#ADADAD"/>
<stop offset="1" stop-color="#3D3D3D"/>
</linearGradient>
</defs>
</svg>
